# xmcd
#
# Track frame offsets:
#	150
#	8147
#	24997
#	42710
#	67402
#	83395
#	107842
#	123985
#	144697
#	167030
#	182970
#	200267
#
# Disc length: 2893 seconds
#
# Revision: 0
# Processed by: cddbd v1.5.1PL0 Copyright (c) Steve Scherf et al.
# Submitted via: dBpowerAMP V4.0
#
DISCID=a60b4b0c
DTITLE=varios - asd,ljnsd
DYEAR=1900
DGENRE=
TTITLE0=etry
TTITLE1=ertr
TTITLE2=dfh
TTITLE3=jy
TTITLE4=etryj
TTITLE5=yuy
TTITLE6=rty
TTITLE7=hjh
TTITLE8=erf
TTITLE9=kjuj
TTITLE10=rtt
TTITLE11=srf
EXTD=
EXTT0=
EXTT1=
EXTT2=
EXTT3=
EXTT4=
EXTT5=
EXTT6=
EXTT7=
EXTT8=
EXTT9=
EXTT10=
EXTT11=
PLAYORDER=
